# xmcd
#
# Track frame offsets: 
#        150
#        19915
#        38243
#        56363
#        71213
#        90947
#        106587
#        122240
#        139622
#        155675
#
# Disc length: 2307 seconds
#
# Revision: 2
# Processed by: cddbd v1.5.1PL0 Copyright (c) Steve Scherf et al.
# Submitted via: ExactAudioCopy v0.95a5
#
DISCID=7e09010a
DTITLE=Reba McEntire - Read My Mind
DYEAR=1994
DGENRE=Country
TTITLE0=Everything That You Want
TTITLE1=Read My Mind
TTITLE2=Won't Stand In Line
TTITLE3=I Wish That I Could Tell You
TTITLE4=She Thinks His Name Was John
TTITLE5=Why Haven't I Heard From You
TTITLE6=And Still
TTITLE7=The Heart Is A Lonely Hunter
TTITLE8=I Wouldn't Wanna Be You
TTITLE9=Till You Love Me
EXTD=
EXTT0=
EXTT1=
EXTT2=
EXTT3=
EXTT4=
EXTT5=
EXTT6=
EXTT7=
EXTT8=
EXTT9=
PLAYORDER=
